<svg xmlns="http://www.w3.org/2000/svg" xmlns:xlink="http://www.w3.org/1999/xlink" version="1.1" width="256" height="256" viewBox="0 0 256 256" xml:space="preserve">
<desc>Created with Fabric.js 1.7.22</desc>
<defs>
</defs>
<g transform="translate(128 128) scale(0.72 0.72)" style="">
	<g style="stroke: none; stroke-width: 0; stroke-dasharray: none; stroke-linecap: butt; stroke-linejoin: miter; stroke-miterlimit: 10; fill: none; fill-rule: nonzero; opacity: 1;" transform="translate(-175.05 -175.05000000000004) scale(3.89 3.89)" >
	<path d="M 64.58 20.894 h -10.31 V 6.203 h 4.208 V 4.82 c 0 -2.658 -2.162 -4.82 -4.82 -4.82 H 36.342 c -2.658 0 -4.82 2.163 -4.82 4.82 v 1.382 h 4.208 v 14.691 h -10.31 c -2.715 0 -4.924 2.209 -4.924 4.924 v 52.761 c 0 2.716 2.209 4.925 4.924 4.925 h 2.704 v 2.064 c 0 2.443 1.988 4.432 4.432 4.432 h 0.687 c 2.443 0 4.431 -1.988 4.431 -4.432 v -2.064 h 14.653 v 2.064 c 0 2.443 1.988 4.432 4.432 4.432 h 0.688 c 2.443 0 4.431 -1.988 4.431 -4.432 v -2.064 h 2.704 c 2.716 0 4.925 -2.209 4.925 -4.925 V 25.818 C 69.505 23.103 67.296 20.894 64.58 20.894 z M 52.271 20.894 h -2.203 V 6.203 h 2.203 V 20.894 z M 48.067 20.894 h -6.135 V 6.203 h 6.135 V 20.894 z M 33.59 4.203 C 33.873 2.944 35 2 36.342 2 h 17.316 c 1.343 0 2.47 0.944 2.752 2.203 h -2.14 h -6.203 h -6.135 h -6.203 H 33.59 z M 37.729 6.203 h 2.203 v 14.691 h -2.203 V 6.203 z M 35.673 85.568 c 0 1.341 -1.091 2.432 -2.431 2.432 h -0.687 c -1.341 0 -2.432 -1.091 -2.432 -2.432 v -2.064 h 5.55 V 85.568 z M 59.876 85.568 c 0 1.341 -1.091 2.432 -2.431 2.432 h -0.688 c -1.341 0 -2.432 -1.091 -2.432 -2.432 v -2.064 h 5.55 V 85.568 z M 67.505 78.579 c 0 1.612 -1.313 2.925 -2.925 2.925 h -2.704 h -9.55 H 37.673 h -9.55 h -2.704 c -1.612 0 -2.924 -1.313 -2.924 -2.925 V 25.818 c 0 -1.612 1.312 -2.924 2.924 -2.924 h 10.31 h 6.203 h 6.135 h 6.203 h 10.31 c 1.612 0 2.925 1.312 2.925 2.924 V 78.579 z" style="stroke: none; stroke-width: 1; stroke-dasharray: none; stroke-linecap: butt; stroke-linejoin: miter; stroke-miterlimit: 10; fill: rgb(0,0,0); fill-rule: nonzero; opacity: 1;" transform=" matrix(1 0 0 1 0 0) " stroke-linecap="round" />
	<path d="M 45 74.211 c -0.552 0 -1 -0.447 -1 -1 V 31.41 c 0 -0.552 0.448 -1 1 -1 s 1 0.448 1 1 v 41.801 C 46 73.764 45.552 74.211 45 74.211 z" style="stroke: none; stroke-width: 1; stroke-dasharray: none; stroke-linecap: butt; stroke-linejoin: miter; stroke-miterlimit: 10; fill: rgb(0,0,0); fill-rule: nonzero; opacity: 1;" transform=" matrix(1 0 0 1 0 0) " stroke-linecap="round" />
	<path d="M 57 74.211 c -0.553 0 -1 -0.447 -1 -1 V 31.41 c 0 -0.552 0.447 -1 1 -1 s 1 0.448 1 1 v 41.801 C 58 73.764 57.553 74.211 57 74.211 z" style="stroke: none; stroke-width: 1; stroke-dasharray: none; stroke-linecap: butt; stroke-linejoin: miter; stroke-miterlimit: 10; fill: rgb(0,0,0); fill-rule: nonzero; opacity: 1;" transform=" matrix(1 0 0 1 0 0) " stroke-linecap="round" />
	<path d="M 33 74.211 c -0.552 0 -1 -0.447 -1 -1 V 31.41 c 0 -0.552 0.448 -1 1 -1 s 1 0.448 1 1 v 41.801 C 34 73.764 33.552 74.211 33 74.211 z" style="stroke: none; stroke-width: 1; stroke-dasharray: none; stroke-linecap: butt; stroke-linejoin: miter; stroke-miterlimit: 10; fill: rgb(0,0,0); fill-rule: nonzero; opacity: 1;" transform=" matrix(1 0 0 1 0 0) " stroke-linecap="round" />
</g>
</g>
</svg>