<svg xmlns="http://www.w3.org/2000/svg" xmlns:xlink="http://www.w3.org/1999/xlink" version="1.1" width="256" height="256" viewBox="0 0 256 256" xml:space="preserve">
<desc>Created with Fabric.js 1.7.22</desc>
<defs>
</defs>
<g transform="translate(128 128) scale(0.72 0.72)" style="">
	<g style="stroke: none; stroke-width: 0; stroke-dasharray: none; stroke-linecap: butt; stroke-linejoin: miter; stroke-miterlimit: 10; fill: none; fill-rule: nonzero; opacity: 1;" transform="translate(-175.05 -175.05000000000004) scale(3.89 3.89)" >
	<path d="M 85.133 56.514 h -0.219 c -0.552 -8.238 -4.499 -15.813 -11.021 -21.017 c -0.861 -0.688 -2.12 -0.547 -2.811 0.316 c -0.688 0.863 -0.548 2.122 0.316 2.811 c 5.563 4.439 8.949 10.877 9.494 17.89 H 50.619 c -1.104 0 -2 0.896 -2 2 s 0.896 2 2 2 H 82.98 h 2.152 c 0.479 0 0.867 0.389 0.867 0.867 s -0.389 0.868 -0.867 0.868 h -59.17 c -0.479 0 -0.868 -0.39 -0.868 -0.868 s 0.389 -0.867 0.868 -0.867 h 2.151 h 14.789 c 1.104 0 2 -0.896 2 -2 s -0.896 -2 -2 -2 H 30.192 C 31.215 43.42 42.196 33.08 55.548 33.08 c 3.646 0 7.164 0.754 10.457 2.242 c 1.004 0.454 2.191 0.008 2.646 -1 c 0.455 -1.006 0.008 -2.191 -0.999 -2.646 c -2.011 -0.908 -4.094 -1.574 -6.231 -2.006 v -0.047 c 0 -3.238 -2.634 -5.872 -5.872 -5.872 s -5.872 2.634 -5.872 5.872 v 0.047 c -12.791 2.6 -22.587 13.521 -23.486 26.844 h -0.227 c -2.684 0 -4.868 2.184 -4.868 4.867 c 0 2.685 2.184 4.868 4.868 4.868 h 59.17 c 2.684 0 4.867 -2.184 4.867 -4.868 C 90 58.697 87.816 56.514 85.133 56.514 z M 55.548 27.751 c 0.864 0 1.586 0.591 1.801 1.388 c -0.597 -0.036 -1.197 -0.059 -1.801 -0.059 c -0.605 0 -1.205 0.024 -1.801 0.06 C 53.961 28.343 54.684 27.751 55.548 27.751 z" style="stroke: none; stroke-width: 1; stroke-dasharray: none; stroke-linecap: butt; stroke-linejoin: miter; stroke-miterlimit: 10; fill: rgb(0,0,0); fill-rule: nonzero; opacity: 1;" transform=" matrix(1 0 0 1 0 0) " stroke-linecap="round" />
	<path d="M 35.628 52.187 c -0.257 0 -0.519 -0.051 -0.771 -0.156 c -1.019 -0.427 -1.499 -1.598 -1.072 -2.617 c 2.702 -6.455 8.078 -11.347 14.75 -13.422 c 1.051 -0.328 2.176 0.26 2.504 1.315 c 0.328 1.055 -0.262 2.176 -1.316 2.504 c -5.54 1.723 -10.004 5.787 -12.249 11.148 C 37.153 51.725 36.411 52.187 35.628 52.187 z" style="stroke: none; stroke-width: 1; stroke-dasharray: none; stroke-linecap: butt; stroke-linejoin: miter; stroke-miterlimit: 10; fill: rgb(0,0,0); fill-rule: nonzero; opacity: 1;" transform=" matrix(1 0 0 1 0 0) " stroke-linecap="round" />
	<path d="M 76.1 53.904 c -0.846 0 -1.632 -0.541 -1.904 -1.39 c -0.691 -2.151 -1.745 -4.154 -3.133 -5.953 c -0.675 -0.875 -0.514 -2.13 0.361 -2.805 c 0.872 -0.675 2.131 -0.514 2.805 0.362 c 1.672 2.166 2.942 4.579 3.775 7.174 c 0.338 1.051 -0.241 2.178 -1.293 2.516 C 76.508 53.873 76.302 53.904 76.1 53.904 z" style="stroke: none; stroke-width: 1; stroke-dasharray: none; stroke-linecap: butt; stroke-linejoin: miter; stroke-miterlimit: 10; fill: rgb(0,0,0); fill-rule: nonzero; opacity: 1;" transform=" matrix(1 0 0 1 0 0) " stroke-linecap="round" />
	<path d="M 22.357 50.621 H 2 c -1.104 0 -2 -0.896 -2 -2 s 0.896 -2 2 -2 h 20.357 c 1.104 0 2 0.896 2 2 S 23.462 50.621 22.357 50.621 z" style="stroke: none; stroke-width: 1; stroke-dasharray: none; stroke-linecap: butt; stroke-linejoin: miter; stroke-miterlimit: 10; fill: rgb(0,0,0); fill-rule: nonzero; opacity: 1;" transform=" matrix(1 0 0 1 0 0) " stroke-linecap="round" />
	<path d="M 25.58 43.322 H 13.723 c -1.104 0 -2 -0.896 -2 -2 s 0.896 -2 2 -2 H 25.58 c 1.104 0 2 0.896 2 2 S 26.685 43.322 25.58 43.322 z" style="stroke: none; stroke-width: 1; stroke-dasharray: none; stroke-linecap: butt; stroke-linejoin: miter; stroke-miterlimit: 10; fill: rgb(0,0,0); fill-rule: nonzero; opacity: 1;" transform=" matrix(1 0 0 1 0 0) " stroke-linecap="round" />
	<path d="M 18.417 58.073 H 6.56 c -1.104 0 -2 -0.896 -2 -2 s 0.896 -2 2 -2 h 11.857 c 1.104 0 2 0.896 2 2 S 19.521 58.073 18.417 58.073 z" style="stroke: none; stroke-width: 1; stroke-dasharray: none; stroke-linecap: butt; stroke-linejoin: miter; stroke-miterlimit: 10; fill: rgb(0,0,0); fill-rule: nonzero; opacity: 1;" transform=" matrix(1 0 0 1 0 0) " stroke-linecap="round" />
	<path d="M 17.544 66.249 H 2 c -1.104 0 -2 -0.896 -2 -2 s 0.896 -2 2 -2 h 15.544 c 1.104 0 2 0.896 2 2 S 18.649 66.249 17.544 66.249 z" style="stroke: none; stroke-width: 1; stroke-dasharray: none; stroke-linecap: butt; stroke-linejoin: miter; stroke-miterlimit: 10; fill: rgb(0,0,0); fill-rule: nonzero; opacity: 1;" transform=" matrix(1 0 0 1 0 0) " stroke-linecap="round" />
	<path d="M 6.286 43.322 H 2 c -1.104 0 -2 -0.896 -2 -2 s 0.896 -2 2 -2 h 4.286 c 1.104 0 2 0.896 2 2 S 7.391 43.322 6.286 43.322 z" style="stroke: none; stroke-width: 1; stroke-dasharray: none; stroke-linecap: butt; stroke-linejoin: miter; stroke-miterlimit: 10; fill: rgb(0,0,0); fill-rule: nonzero; opacity: 1;" transform=" matrix(1 0 0 1 0 0) " stroke-linecap="round" />
</g>
</g>
</svg>