<svg xmlns="http://www.w3.org/2000/svg" xmlns:xlink="http://www.w3.org/1999/xlink" version="1.1" width="256" height="256" viewBox="0 0 256 256" xml:space="preserve">
<desc>Created with Fabric.js 1.7.22</desc>
<defs>
</defs>
<g transform="translate(128 128) scale(0.72 0.72)" style="">
	<g style="stroke: none; stroke-width: 0; stroke-dasharray: none; stroke-linecap: butt; stroke-linejoin: miter; stroke-miterlimit: 10; fill: none; fill-rule: nonzero; opacity: 1;" transform="translate(-175.05 -175.05000000000004) scale(3.89 3.89)" >
	<path d="M 45 90 c -17.997 0 -32.639 -14.642 -32.639 -32.639 c 0 -0.121 0.011 -0.239 0.031 -0.354 c 0.085 -4.493 1.779 -8.803 3.569 -13.359 c 2.81 -7.152 5.716 -14.548 2.527 -23.393 c -0.259 -0.718 -0.087 -1.52 0.444 -2.069 c 0.531 -0.548 1.328 -0.748 2.053 -0.512 c 6.129 1.981 10.731 5.541 14.275 11.093 c 5.062 -8.361 6.255 -15.447 4.741 -26.496 c -0.11 -0.806 0.278 -1.598 0.983 -2.004 c 0.706 -0.406 1.587 -0.344 2.227 0.155 c 8.554 6.66 13.329 15.209 14.256 25.487 c 2.67 -3.168 5.995 -5.203 9.143 -6.813 c 0.71 -0.361 1.566 -0.271 2.183 0.237 c 0.615 0.506 0.871 1.33 0.651 2.096 c -2.808 9.779 0.618 16.528 3.931 23.056 c 2.122 4.182 4.13 8.138 4.232 12.526 c 0.021 0.114 0.031 0.231 0.031 0.351 C 77.639 75.358 62.997 90 45 90 z M 16.363 57.685 C 16.537 73.328 29.316 86 45 86 c 15.685 0 28.465 -12.674 28.637 -28.318 c -0.017 -0.104 -0.025 -0.211 -0.025 -0.32 c 0 -3.571 -1.763 -7.045 -3.804 -11.066 c -2.858 -5.633 -6.318 -12.452 -5.153 -21.448 c -3.085 2.083 -5.802 4.888 -7.291 9.353 c -0.321 0.961 -1.303 1.533 -2.303 1.326 c -0.992 -0.205 -1.674 -1.12 -1.587 -2.129 c 0.927 -10.795 -2.016 -19.517 -8.978 -26.518 c 0.67 10.372 -1.56 17.848 -7.678 26.861 c -0.397 0.584 -1.077 0.913 -1.775 0.873 c -0.705 -0.043 -1.334 -0.454 -1.657 -1.081 c -2.54 -4.931 -5.768 -8.354 -9.996 -10.545 c 1.664 8.459 -1.167 15.665 -3.705 22.125 c -1.695 4.313 -3.295 8.387 -3.295 12.25 C 16.389 57.472 16.38 57.579 16.363 57.685 z" style="stroke: none; stroke-width: 1; stroke-dasharray: none; stroke-linecap: butt; stroke-linejoin: miter; stroke-miterlimit: 10; fill: rgb(0,0,0); fill-rule: nonzero; opacity: 1;" transform=" matrix(1 0 0 1 0 0) " stroke-linecap="round" />
	<path d="M 34.572 59.113 c -4.181 0 -7.582 -3.4 -7.582 -7.581 s 3.401 -7.581 7.582 -7.581 c 4.18 0 7.581 3.4 7.581 7.581 S 38.752 59.113 34.572 59.113 z M 34.572 47.951 c -1.975 0 -3.582 1.606 -3.582 3.581 s 1.606 3.581 3.582 3.581 c 1.975 0 3.581 -1.606 3.581 -3.581 S 36.546 47.951 34.572 47.951 z" style="stroke: none; stroke-width: 1; stroke-dasharray: none; stroke-linecap: butt; stroke-linejoin: miter; stroke-miterlimit: 10; fill: rgb(0,0,0); fill-rule: nonzero; opacity: 1;" transform=" matrix(1 0 0 1 0 0) " stroke-linecap="round" />
	<path d="M 31.732 76.927 c -0.482 0 -0.966 -0.174 -1.35 -0.525 c -0.815 -0.746 -0.871 -2.011 -0.125 -2.825 l 26.536 -28.976 c 0.746 -0.814 2.01 -0.871 2.825 -0.125 c 0.814 0.746 0.87 2.011 0.124 2.826 L 33.208 76.277 C 32.813 76.708 32.273 76.927 31.732 76.927 z" style="stroke: none; stroke-width: 1; stroke-dasharray: none; stroke-linecap: butt; stroke-linejoin: miter; stroke-miterlimit: 10; fill: rgb(0,0,0); fill-rule: nonzero; opacity: 1;" transform=" matrix(1 0 0 1 0 0) " stroke-linecap="round" />
	<path d="M 55.429 76.927 c -4.181 0 -7.582 -3.4 -7.582 -7.581 s 3.401 -7.581 7.582 -7.581 s 7.581 3.4 7.581 7.581 S 59.609 76.927 55.429 76.927 z M 55.429 65.765 c -1.976 0 -3.582 1.606 -3.582 3.581 s 1.606 3.581 3.582 3.581 c 1.975 0 3.581 -1.606 3.581 -3.581 S 57.403 65.765 55.429 65.765 z" style="stroke: none; stroke-width: 1; stroke-dasharray: none; stroke-linecap: butt; stroke-linejoin: miter; stroke-miterlimit: 10; fill: rgb(0,0,0); fill-rule: nonzero; opacity: 1;" transform=" matrix(1 0 0 1 0 0) " stroke-linecap="round" />
</g>
</g>
</svg>