<svg xmlns="http://www.w3.org/2000/svg" xmlns:xlink="http://www.w3.org/1999/xlink" version="1.1" width="256" height="256" viewBox="0 0 256 256" xml:space="preserve">
<desc>Created with Fabric.js 1.7.22</desc>
<defs>
</defs>
<g transform="translate(128 128) scale(0.72 0.72)" style="">
	<g style="stroke: none; stroke-width: 0; stroke-dasharray: none; stroke-linecap: butt; stroke-linejoin: miter; stroke-miterlimit: 10; fill: none; fill-rule: nonzero; opacity: 1;" transform="translate(-175.05 -175.05000000000004) scale(3.89 3.89)" >
	<path d="M 64.193 76.318 H 25.807 c -0.552 0 -1 -0.447 -1 -1 V 57.873 c 0 -7.152 5.819 -12.971 12.971 -12.971 h 14.443 c 7.152 0 12.972 5.819 12.972 12.971 v 17.445 C 65.193 75.871 64.746 76.318 64.193 76.318 z M 26.807 74.318 h 36.386 V 57.873 c 0 -6.05 -4.922 -10.972 -10.972 -10.972 H 37.778 c -6.049 0 -10.971 4.922 -10.971 10.972 V 74.318 z" style="stroke: none; stroke-width: 1; stroke-dasharray: none; stroke-linecap: butt; stroke-linejoin: miter; stroke-miterlimit: 10; fill: rgb(0,0,0); fill-rule: nonzero; opacity: 1;" transform=" matrix(1 0 0 1 0 0) " stroke-linecap="round" />
	<path d="M 35.727 76.318 c -0.552 0 -1 -0.447 -1 -1 V 60.374 c 0 -0.553 0.448 -1 1 -1 s 1 0.447 1 1 v 14.944 C 36.727 75.871 36.279 76.318 35.727 76.318 z" style="stroke: none; stroke-width: 1; stroke-dasharray: none; stroke-linecap: butt; stroke-linejoin: miter; stroke-miterlimit: 10; fill: rgb(0,0,0); fill-rule: nonzero; opacity: 1;" transform=" matrix(1 0 0 1 0 0) " stroke-linecap="round" />
	<path d="M 54.273 76.318 c -0.553 0 -1 -0.447 -1 -1 V 60.374 c 0 -0.553 0.447 -1 1 -1 s 1 0.447 1 1 v 14.944 C 55.273 75.871 54.826 76.318 54.273 76.318 z" style="stroke: none; stroke-width: 1; stroke-dasharray: none; stroke-linecap: butt; stroke-linejoin: miter; stroke-miterlimit: 10; fill: rgb(0,0,0); fill-rule: nonzero; opacity: 1;" transform=" matrix(1 0 0 1 0 0) " stroke-linecap="round" />
	<path d="M 45.519 40.742 h -1.038 c -6.152 0 -11.158 -5.005 -11.158 -11.158 v -4.745 c 0 -6.152 5.005 -11.158 11.158 -11.158 h 1.038 c 6.153 0 11.158 5.005 11.158 11.158 v 4.745 C 56.677 35.737 51.672 40.742 45.519 40.742 z M 44.481 15.682 c -5.05 0 -9.158 4.108 -9.158 9.158 v 4.745 c 0 5.05 4.108 9.158 9.158 9.158 h 1.038 c 5.049 0 9.158 -4.108 9.158 -9.158 v -4.745 c 0 -5.05 -4.108 -9.158 -9.158 -9.158 H 44.481 z" style="stroke: none; stroke-width: 1; stroke-dasharray: none; stroke-linecap: butt; stroke-linejoin: miter; stroke-miterlimit: 10; fill: rgb(0,0,0); fill-rule: nonzero; opacity: 1;" transform=" matrix(1 0 0 1 0 0) " stroke-linecap="round" />
	<path d="M 89 64.72 H 70.503 c -0.553 0 -1 -0.447 -1 -1 s 0.447 -1 1 -1 H 88 V 49.611 c 0 -4.787 -3.895 -8.682 -8.681 -8.682 H 67.638 c -2.059 0 -4.055 0.733 -5.62 2.064 c -0.418 0.357 -1.05 0.308 -1.409 -0.114 c -0.357 -0.421 -0.307 -1.052 0.114 -1.41 c 1.926 -1.639 4.382 -2.541 6.915 -2.541 h 11.682 C 85.209 38.93 90 43.722 90 49.611 V 63.72 C 90 64.272 89.553 64.72 89 64.72 z" style="stroke: none; stroke-width: 1; stroke-dasharray: none; stroke-linecap: butt; stroke-linejoin: miter; stroke-miterlimit: 10; fill: rgb(0,0,0); fill-rule: nonzero; opacity: 1;" transform=" matrix(1 0 0 1 0 0) " stroke-linecap="round" />
	<path d="M 80.978 64.72 c -0.553 0 -1 -0.447 -1 -1 V 51.634 c 0 -0.553 0.447 -1 1 -1 s 1 0.447 1 1 V 63.72 C 81.978 64.272 81.53 64.72 80.978 64.72 z" style="stroke: none; stroke-width: 1; stroke-dasharray: none; stroke-linecap: butt; stroke-linejoin: miter; stroke-miterlimit: 10; fill: rgb(0,0,0); fill-rule: nonzero; opacity: 1;" transform=" matrix(1 0 0 1 0 0) " stroke-linecap="round" />
	<path d="M 73.898 35.948 h -0.84 c -5.081 0 -9.215 -4.133 -9.215 -9.214 v -3.837 c 0 -5.081 4.134 -9.215 9.215 -9.215 h 0.84 c 5.08 0 9.214 4.134 9.214 9.215 v 3.837 C 83.112 31.815 78.979 35.948 73.898 35.948 z M 73.059 15.682 c -3.979 0 -7.215 3.236 -7.215 7.215 v 3.837 c 0 3.978 3.236 7.214 7.215 7.214 h 0.84 c 3.978 0 7.214 -3.236 7.214 -7.214 v -3.837 c 0 -3.979 -3.236 -7.215 -7.214 -7.215 H 73.059 z" style="stroke: none; stroke-width: 1; stroke-dasharray: none; stroke-linecap: butt; stroke-linejoin: miter; stroke-miterlimit: 10; fill: rgb(0,0,0); fill-rule: nonzero; opacity: 1;" transform=" matrix(1 0 0 1 0 0) " stroke-linecap="round" />
	<path d="M 19.497 64.72 H 1 c -0.552 0 -1 -0.447 -1 -1 V 49.611 c 0 -5.89 4.792 -10.682 10.681 -10.682 h 11.681 c 2.532 0 4.988 0.902 6.916 2.541 c 0.42 0.357 0.472 0.989 0.114 1.41 c -0.357 0.42 -0.988 0.472 -1.41 0.114 c -1.565 -1.331 -3.562 -2.064 -5.62 -2.064 H 10.681 C 5.895 40.93 2 44.824 2 49.611 V 62.72 h 17.497 c 0.552 0 1 0.447 1 1 S 20.049 64.72 19.497 64.72 z" style="stroke: none; stroke-width: 1; stroke-dasharray: none; stroke-linecap: butt; stroke-linejoin: miter; stroke-miterlimit: 10; fill: rgb(0,0,0); fill-rule: nonzero; opacity: 1;" transform=" matrix(1 0 0 1 0 0) " stroke-linecap="round" />
	<path d="M 9.022 64.72 c -0.552 0 -1 -0.447 -1 -1 V 51.634 c 0 -0.553 0.448 -1 1 -1 s 1 0.447 1 1 V 63.72 C 10.022 64.272 9.575 64.72 9.022 64.72 z" style="stroke: none; stroke-width: 1; stroke-dasharray: none; stroke-linecap: butt; stroke-linejoin: miter; stroke-miterlimit: 10; fill: rgb(0,0,0); fill-rule: nonzero; opacity: 1;" transform=" matrix(1 0 0 1 0 0) " stroke-linecap="round" />
	<path d="M 16.941 35.948 h -0.839 c -5.081 0 -9.215 -4.133 -9.215 -9.214 v -3.837 c 0 -5.081 4.134 -9.215 9.215 -9.215 h 0.839 c 5.081 0 9.214 4.134 9.214 9.215 v 3.837 C 26.156 31.815 22.022 35.948 16.941 35.948 z M 16.102 15.682 c -3.979 0 -7.215 3.236 -7.215 7.215 v 3.837 c 0 3.978 3.236 7.214 7.215 7.214 h 0.839 c 3.978 0 7.214 -3.236 7.214 -7.214 v -3.837 c 0 -3.979 -3.236 -7.215 -7.214 -7.215 H 16.102 z" style="stroke: none; stroke-width: 1; stroke-dasharray: none; stroke-linecap: butt; stroke-linejoin: miter; stroke-miterlimit: 10; fill: rgb(0,0,0); fill-rule: nonzero; opacity: 1;" transform=" matrix(1 0 0 1 0 0) " stroke-linecap="round" />
</g>
</g>
</svg>